<?xml version="1.0" encoding="utf-8"?>
<!-- Generator: Adobe Illustrator 19.0.0, SVG Export Plug-In . SVG Version: 6.00 Build 0)  -->
<svg version="1.1" id="Layer_1" xmlns="http://www.w3.org/2000/svg" xmlns:xlink="http://www.w3.org/1999/xlink" x="0px" y="0px"
	 viewBox="0 0 456 456" style="enable-background:new 0 0 456 456;" xml:space="preserve">
<style type="text/css">
	.st0{fill:#4EAF4B;}
	.st1{fill:#FFFFFF;}
</style>
<g id="XMLID_29_">
	<circle id="XMLID_149_" class="st0" cx="228" cy="228.5" r="228"/>
	<g id="XMLID_90_">
		<path id="XMLID_99_" class="st1" d="M105.5,133.4c0-0.7,0-1.3,0-2c0.1-0.1,0.2-0.2,0.2-0.3c1.5-5.4,6-7.8,11.2-5.6
			c5.8,2.4,11.5,5,17.1,7.7c13.8,6.6,27.6,13.3,41.4,19.9c2.2,1,3.7,2.4,4.6,4.6c1,2.4,2.2,4.7,3.3,7.1c0.6,1.5,1.5,2,3.2,1.8
			c5.7-0.7,11.5-1.2,17.2-1.9c6.1-0.7,12.1-1.4,18.2-2.2c6-0.7,12-1.6,18.1-2.3c1.4-0.2,2.4-0.7,3-2c0.5-1,1.2-2,1.8-3
			c7.5-11.9,15-23.8,22.4-35.7c1.9-3.1,6.4-4.3,9.6-2.9c15.1,6.5,30.2,12.9,45.2,19.4c7.9,3.4,15.7,6.9,23.5,10.3
			c4.4,1.9,6.2,7.2,4,11.2c-0.6,1-1.1,2.2-1.7,3.2c-9.2,15-18.4,30.1-27.6,45.1c-0.4,0.7-0.7,1.7-0.7,2.5c0,36.7,0,73.3,0,110
			c0,3-1.3,5.3-3.3,7.2c-0.5,0.5-1.3,0.9-2.1,1c-3.1,0.6-6.2,1.1-9.4,1.5c-5.6,0.7-11.2,1.4-16.8,2.1c-6.1,0.7-12.1,1.5-18.2,2.2
			c-6,0.7-12,1.4-18,2.1c-6.1,0.7-12.2,1.4-18.3,2.1c-6.3,0.7-12.6,1.4-18.9,2.1c-6.1,0.7-12.2,1.3-18.4,2c-2.2,0.2-4.1-0.2-6-1.5
			c-15.5-10-31-20-46.4-30c-5.2-3.4-10.4-7-15.4-10.6c-2.4-1.7-3.5-4.1-3.5-7.2c0-36.9,0-73.8,0-110.6c0-0.9-0.2-1.9-0.6-2.8
			c-5.1-12-10.2-24-15.3-36C107.7,139.2,106.7,136.3,105.5,133.4z M303,211c-0.7,0-1.3,0-1.8,0c-5.3,0.6-10.6,1.1-15.9,1.8
			c-8.1,0.9-16.2,2-24.3,2.9c-8.7,1-17.4,2-26.1,3.1c-9.9,1.2-19.8,2.5-29.7,3.7c-0.8,0.1-1.3,0.4-1.3,1.3c-0.1,3-0.3,6-0.3,9
			c0,28,0,56,0,84c0,1.7,0.1,3.4,0.3,5.1c0.1,0.9,0.3,1.4,1.5,1.2c2.8-0.4,5.6-0.6,8.4-0.9c9.1-1,18.3-2.1,27.4-3.2
			c9.8-1.1,19.6-2.2,29.4-3.3c10.3-1.2,20.6-2.5,31-3.7c0.8-0.1,1.1-0.4,1.1-1.2c0.1-2.4,0.2-4.7,0.2-7.1
			c0.1-30.4,0.2-60.8,0.2-91.2C303,212,303,211.6,303,211z M186.6,317c0-0.7,0-1.1,0-1.6c0.1-13.7,0.3-27.3,0.4-41
			c0.1-18.2,0-36.3,0.1-54.5c0-0.9-0.3-1.4-1-1.9c-1.8-1-3.5-2.2-5.2-3.3c-12.2-7.8-24.3-15.7-36.5-23.5c-0.6-0.4-1.3-0.8-2.2-1.3
			c0,1.1,0,1.9,0,2.8c-0.1,31.5-0.2,62.9-0.3,94.4c0,0.9,0.3,1.3,1,1.8c13.2,8.5,26.4,17,39.5,25.5C183.7,315.2,185,316,186.6,317z
			 M306.7,196c7.8-12.7,15.5-25.4,23.3-38.1c-0.7-0.3-1.2-0.5-1.6-0.7c-16.5-7.2-33.1-14.3-49.6-21.6c-1.3-0.6-1.8-0.4-2.5,0.8
			c-5,8.1-10,16.2-15,24.3c-0.8,1.3-1.6,2.6-2.5,4.2C274.8,175.3,290.7,185.6,306.7,196z M188.6,177c0.1,0.4,0.2,0.8,0.3,1.1
			c1.9,4.5,3.7,9.1,5.6,13.6c2.7,6.3,5.5,12.6,8.3,18.9c0.9,2,1.1,1.9,3.2,1.7c5.3-0.7,10.6-1.3,16-1.9c6.9-0.8,13.9-1.7,20.8-2.5
			c1-0.1,1.2-0.5,1.2-1.4c0-5,0-9.9,0-14.9c-0.1-6.3-0.2-12.7-0.3-19c0-1.8-0.7-2.3-2.5-2.1c-3.3,0.4-6.6,0.7-9.9,1.1
			c-5.9,0.7-11.7,1.4-17.6,2.1c-5.5,0.7-11,1.4-16.4,2.1C194.5,176.1,191.6,176.5,188.6,177z M130.4,150c0.2,0.6,0.3,0.8,0.4,0.9
			c3.4,8.2,6.8,16.5,10.3,24.7c0.3,0.8,0.9,1.6,1.5,2c12,8,24.1,16,36.2,24c0.7,0.5,1.5,0.9,2.2,1.3c-0.1-1-0.3-1.9-0.7-2.7
			c-4.7-10.9-9.4-21.8-14.1-32.7c-0.2-0.5-0.7-1-1.2-1.2c-9-4.3-18-8.6-27-12.9C135.5,152.3,133.1,151.2,130.4,150z M295.4,201.7
			c-0.8-1.8-36.7-25.7-41.2-27.5c0,10.8,0,21.6,0,32.3C267.9,204.9,281.6,203.3,295.4,201.7z"/>
	</g>
</g>
</svg>
