<?xml version="1.0" encoding="utf-8"?>
<!-- Generator: Adobe Illustrator 19.0.0, SVG Export Plug-In . SVG Version: 6.00 Build 0)  -->
<svg version="1.1" id="Layer_1" xmlns="http://www.w3.org/2000/svg" xmlns:xlink="http://www.w3.org/1999/xlink" x="0px" y="0px"
	 viewBox="0 0 456 456" style="enable-background:new 0 0 456 456;" xml:space="preserve">
<style type="text/css">
	.st0{fill:#35A5DD;}
	.st1{fill:#FFFFFF;}
</style>
<g id="XMLID_30_">
	<circle id="XMLID_2_" class="st0" cx="228.1" cy="229" r="228"/>
	<g id="XMLID_23_">
		<g id="XMLID_167_">
			<path id="XMLID_169_" class="st1" d="M285,169.4H129.8c-4.4,0-8-3.6-8-8V89c0-4.4,3.6-8,8-8h120.1c3.2,0,7.5,1.6,10,3.7
				l28.6,24.9c2.6,2.2,4.5,6.5,4.5,9.9v41.9C293,165.8,289.4,169.4,285,169.4z M129.8,88.5c-0.3,0-0.5,0.2-0.5,0.5v72.4
				c0,0.3,0.2,0.5,0.5,0.5H285c0.3,0,0.5-0.2,0.5-0.5v-41.9c0-1.3-1-3.4-1.9-4.2L255,90.4c-1.1-0.9-3.6-1.9-5-1.9H129.8z"/>
		</g>
		<g id="XMLID_138_">
			<g id="XMLID_166_">
				<path id="XMLID_141_" class="st1" d="M129.2,312.7c-2.7,0-5.4,0-8.1,0c-5,0-6.2-3-7-6.4l-0.1-0.4V182.6l0.1-2.9
					c0-2.2,0.1-4.4,0.1-6.6c0-1.9,0-3.7,0-5.6l0-2.7c0-3,1.7-5,4.5-5.4c2.3-0.3,4.5-0.5,6.8-0.5c10.2-0.1,22.2-0.2,34.5-0.2
					c20.4,0,136.4,0,136.4,0c4.1,0,6.8,2.6,6.9,6.7c0.1,4.4,0.2,8.8,0.2,13.2l0,3.7c0,0.8,0,1.7,0,2.6l7.6,0c7.5,0,15,0,22.5,0.1
					l0.7,0c3.5,0,7.1,0.1,10.7,0.9c6.9,1.6,12.1,5.6,15.2,11.6c3.6,6.9,7,14,10.2,20.9l1.1,2.3c2.3,4.9,4.5,9.9,6.5,14.6
					c3.6,8.5,4.2,17.4,4.2,24.9c0.1,9.2,0,18.4,0,27.6l0,9.1c0,0.6-0.1,1.5-0.4,2.3c-2.4,5.3-5.7,8.9-10,11.1
					c-2.1,1.1-4.4,1.7-6.6,1.9c-3.7,0.2-7.3,0.2-10.9,0.3c-1.7,0-3.5,0-5.2,0.1l-0.2,0c-3.4,0-5-1.8-5.7-3.3
					c-1.6-3.3-0.8-5.9,0.1-7.4c0.8-1.3,2.3-2.2,3.8-2.4c2.5-0.2,5-0.4,7.5-0.5c1.6-0.1,3.3-0.2,4.9-0.3c1.5-0.1,3.1-0.3,4.9-0.5
					c1.7-0.2,3.6-1.7,3.6-3.6c0-1.1,0-2.2,0.1-3.2c0-1.6,0.1-3.2,0.1-4.7c0-3.1,0-6.3,0-9.4c0-5.5-0.1-11.1,0-16.7
					c0.1-9-1.6-17-5.2-24.5c-5-10.4-9.5-20-13.9-29.4c-1.3-2.7-3.2-4.7-6-6.3c-1.6-0.9-3-1.3-4.7-1.3c-10.7,0-21.3-0.1-32-0.2
					l-10.3-0.1c-3.4,0-6-2.3-6.3-5.8c-0.2-1.6-0.3-3.3-0.3-4.9c-0.1-3.8-0.1-7.6-0.2-11.4l-0.1-3.9H128.3v126.2l2.5,0
					c2.6,0,5.3,0,7.9,0c3.2,0,5.7,1.9,6.6,4.9c0.9,2.8,0,5.5-2.3,7.3c-1.2,0.9-2.8,1.5-4.4,1.5C135.5,312.7,132.3,312.7,129.2,312.7
					z"/>
				<path id="XMLID_168_" class="st1" d="M116.8,182.6c0.1-3.2,0.1-6.3,0.2-9.5c0-2.8,0-5.5,0-8.3c0-1.5,0.6-2.4,2.1-2.6
					c2.1-0.3,4.3-0.4,6.4-0.5c11.5-0.1,23-0.2,34.4-0.2c45.5,0,90.9,0,136.4,0c2.6,0,4,1.3,4,3.9c0.1,5.6,0.2,11.2,0.3,16.9
					c0,1.7,0,3.5,0,5.4c0.6,0,1.2,0,1.7,0c10.4,0,20.8,0,31.2,0.1c3.6,0,7.3,0,10.8,0.8c5.8,1.4,10.6,4.8,13.4,10.1
					c4,7.6,7.6,15.4,11.3,23.2c2.3,4.8,4.4,9.7,6.4,14.5c3.3,7.6,3.9,15.7,4,23.8c0.1,12.2,0,24.5,0,36.7c0,0.4,0,0.8-0.2,1.2
					c-1.9,4.1-4.6,7.7-8.8,9.8c-1.6,0.9-3.6,1.4-5.4,1.5c-5.3,0.3-10.7,0.2-16.1,0.3c-1.5,0-2.6-0.4-3.3-1.8c-0.8-1.6-0.9-3.2,0-4.7
					c0.3-0.5,1-1,1.6-1c4.1-0.3,8.3-0.5,12.4-0.8c1.7-0.1,3.4-0.3,5-0.5c3.1-0.4,6-3.1,6-6.3c0-2.7,0.2-5.4,0.2-8
					c0-8.7-0.1-17.4,0-26.1c0.1-9-1.5-17.6-5.5-25.8c-4.7-9.7-9.3-19.5-13.9-29.4c-1.6-3.4-4-5.8-7.2-7.6c-1.9-1.1-3.8-1.6-6-1.6
					c-14.1,0-28.1-0.1-42.2-0.2c-1.9,0-3.3-1.2-3.5-3.2c-0.1-1.6-0.2-3.1-0.3-4.7c-0.1-5.7-0.2-11.3-0.3-17c0-0.3,0-0.6-0.1-1.1
					c-55.5,0-110.9,0-166.5,0c0,43.8,0,87.7,0,131.8c0.5,0,0.9,0.1,1.4,0.1c3.9,0,7.9,0,11.8,0.1c1.9,0,3.4,1.1,3.9,2.9
					c0.5,1.7,0,3.2-1.3,4.2c-0.7,0.5-1.8,0.9-2.7,0.9c-5.8,0.1-11.7,0.1-17.5,0c-2.7,0-3.4-0.8-4.3-4.3
					C116.8,264.6,116.8,223.6,116.8,182.6z"/>
			</g>
			<g id="XMLID_162_">
				<path id="XMLID_146_" class="st1" d="M304.7,339.8c-17.6,0-31-13.4-33.9-26.4c-3.7-17.1,5.2-33.4,21.8-39.7
					c4.7-1.8,9.4-2,13.3-2l0.7,0c16.3,0.1,28.6,12.6,32.3,24.8c4,13.2-1.7,32.1-18.1,39.7c-5.1,2.4-10.4,3.6-15.8,3.6L304.7,339.8z
					 M304.6,285.7c-5.1,0-9.7,1.8-13.7,5.5c-6,5.5-8,11.6-6.3,18.6c2.3,9.5,10.7,15.9,20.8,15.9h0c1.1,0,2.2-0.1,3.2-0.2
					c7.6-1.1,18.1-9.2,17.4-19.5c-0.1-0.6-0.1-1.4-0.2-2.3c-0.1-1.4-0.2-2.8-0.6-3.8c-3.6-8.8-10.1-13.5-19.3-14.1
					C305.4,285.7,305,285.7,304.6,285.7z"/>
				<path id="XMLID_164_" class="st1" d="M305.1,337c-16.3,0.2-28.9-12.3-31.5-24.2c-3.5-15.8,4.8-30.7,20-36.4
					c4.2-1.6,8.6-1.9,13-1.8c14.2,0.1,25.9,10.7,29.6,22.8c3.9,12.7-2.3,29.7-16.6,36.3C315.1,335.8,310.2,337,305.1,337z
					 M328.8,305.6c-0.3-2.3-0.2-4.8-1-7c-3.9-9.7-11.2-15.2-21.8-15.8c-6.5-0.4-12.2,1.8-17,6.2c-6.2,5.8-9.2,12.8-7.2,21.3
					c2.9,12.2,14.7,19.5,27.2,17.8C318.4,326.9,329.6,317.2,328.8,305.6z"/>
			</g>
			<g id="XMLID_158_">
				<path id="XMLID_143_" class="st1" d="M182,339.9c-15.9,0-29.9-10.6-33.9-25.7c-3.4-12.9,0.1-24.4,10.1-33.4
					c4.8-4.3,10.1-7.1,15.7-8.3c1.9-0.4,3.8-0.5,5.6-0.7c0.8-0.1,1.5-0.1,2.3-0.2l0.2,0l0.7,0c16.3,0,27.9,10.8,32.2,21.6
					c6,14.9,0.7,31.7-12.9,40.7C196,337.8,189.1,339.9,182,339.9z M182,285.6c-3.5,0-6.8,0.8-9.8,2.5c-8.7,4.7-12.9,13.9-10.3,23
					c2.3,8.4,11.3,14.5,21.3,14.6c4.2-0.1,10.4-1.6,15.4-7.6c4.1-5,5.5-10.4,4.3-15.9C200.7,292.6,192,285.6,182,285.6z"/>
				<path id="XMLID_160_" class="st1" d="M182,274.4c15.8-0.3,26.5,10.6,30.2,19.8c5,12.6,1.6,28.3-11.8,37.3
					c-18.5,12.3-43.9,3.4-49.5-18c-3.1-11.7,0-22.3,9.2-30.6c4.1-3.7,8.9-6.5,14.4-7.6C176.9,274.7,179.5,274.7,182,274.4z
					 M183.1,328.5c6.4-0.2,12.8-2.8,17.6-8.6c4.4-5.3,6.4-11.5,4.9-18.3c-3.4-15.3-20.8-23.3-34.7-15.9
					c-9.9,5.3-14.6,15.9-11.7,26.3C161.8,321.3,171.6,328.4,183.1,328.5z"/>
			</g>
			<g id="XMLID_153_">
				<path id="XMLID_156_" class="st1" d="M324.7,248.5c-7.2,0-14.4,0-21.6,0c-2.9,0-5.6-0.9-7.9-2.7c-1.8-1.4-2.6-3.3-2.6-5.5
					c-0.1-8.2-0.1-16.3-0.1-24.5c0-2.8,1.3-5.1,3.2-7c2.4-2.3,5.2-3.5,8.5-3.5c9.6,0.1,19.3,0.1,28.9,0.1c0.5,0,1,0.2,1.5,0.4
					c0.8,0.4,1.5,0.8,2.2,1.2c2.7,1.6,4.8,3.5,6.1,6.5c3.5,8.1,7.2,16.1,10.7,24.2c0.5,1.2,0.8,2.7,0.8,4c-0.1,3.5-2.7,6.4-6.2,6.5
					c-7.9,0.3-15.8,0.5-23.7,0.7C324.7,248.8,324.7,248.6,324.7,248.5z M345.6,239.9c-0.1-0.4-0.2-0.6-0.2-0.8c-3.2-7-6.4-14-9.5-21
					c-1.4-3.2-3.8-4.4-7.1-4.4c-7.8,0-15.6,0-23.4,0c-3,0-4.7,1.6-4.7,4.6c-0.1,7,0,14,0,21c0,0.1,0.1,0.2,0.3,0.6
					C315.7,240.2,330.6,239.8,345.6,239.9z"/>
			</g>
			<g id="XMLID_152_">
				<path id="XMLID_140_" class="st1" d="M225.8,312.8c-2.1,0-4.2-1.1-5.4-3c-1.3-1.9-1.6-4.3-0.8-6.3c1.2-2.9,3.5-4.5,6.7-4.5
					l35.6,0c1.7,0,3.4,0.8,4.6,2.1c1.2,1.3,1.8,2.9,1.7,4.5c-0.3,4.2-1.4,6.5-6.5,6.9c-4.3,0.3-8.5,0.3-12.1,0.4
					c-3.4,0-6.7,0-10.1,0L225.8,312.8z"/>
				<path id="XMLID_154_" class="st1" d="M243.9,301.8c6,0,12.1,0,18.1,0c1.8,0,3.6,1.8,3.5,3.6c-0.2,3.2-0.5,4-3.9,4.2
					c-4,0.2-7.9,0.3-11.9,0.3c-7.9,0-15.9,0-23.8,0c-2.6,0-4.5-3-3.6-5.4c0.7-1.9,2.1-2.7,4-2.7C232.2,301.8,238,301.8,243.9,301.8z
					"/>
			</g>
		</g>
		<g id="XMLID_134_">
			<path id="XMLID_135_" class="st1" d="M285.2,119h-26.6c-4.4,0-8-3.6-8-8V89c0-3.8,2.2-5.2,3.1-5.6c0.9-0.4,3.5-1.2,6.3,1.3
				l28.7,24.9l0,0c3,2.6,2.5,5.1,2.1,6.1C290.4,116.7,289.1,119,285.2,119z M258,93v18c0,0.3,0.2,0.5,0.5,0.5h20.8L258,93z"/>
		</g>
		<g id="XMLID_132_">
			<path id="XMLID_133_" class="st1" d="M234.6,118.2h-95.8c-1.7,0-3-1.3-3-3c0-1.7,1.3-3,3-3h95.8c1.7,0,3,1.3,3,3
				C237.7,116.9,236.3,118.2,234.6,118.2z"/>
		</g>
		<g id="XMLID_130_">
			<path id="XMLID_131_" class="st1" d="M275.8,134.2h-137c-1.7,0-3-1.3-3-3s1.3-3,3-3h137c1.7,0,3,1.3,3,3S277.4,134.2,275.8,134.2
				z"/>
		</g>
		<g id="XMLID_128_">
			<path id="XMLID_129_" class="st1" d="M275.8,151.8h-137c-1.7,0-3-1.3-3-3c0-1.7,1.3-3,3-3h137c1.7,0,3,1.3,3,3
				C278.8,150.4,277.4,151.8,275.8,151.8z"/>
		</g>
		<g id="XMLID_126_">
			<rect id="XMLID_127_" x="126.7" y="313.5" class="st1" width="5.3" height="54.1"/>
		</g>
		<g id="XMLID_124_">
			<rect id="XMLID_125_" x="165.9" y="331" class="st1" width="5.3" height="14.8"/>
		</g>
		<g id="XMLID_122_">
			<rect id="XMLID_123_" x="165.9" y="353.7" class="st1" width="5.3" height="13.9"/>
		</g>
		<g id="XMLID_106_">
			<rect id="XMLID_107_" x="151.9" y="313.5" class="st1" width="5.3" height="50.9"/>
		</g>
		<g id="XMLID_86_">
			<rect id="XMLID_105_" x="210.7" y="313.5" class="st1" width="5.3" height="58"/>
		</g>
		<g id="XMLID_84_">
			<rect id="XMLID_85_" x="247.7" y="313.5" class="st1" width="5.3" height="46.9"/>
		</g>
		<g id="XMLID_82_">
			<rect id="XMLID_83_" x="260.2" y="314" class="st1" width="5.3" height="31.8"/>
		</g>
		<g id="XMLID_80_">
			<rect id="XMLID_81_" x="260.2" y="352.8" class="st1" width="5.3" height="24.2"/>
		</g>
		<g id="XMLID_78_">
			<rect id="XMLID_79_" x="274" y="314" class="st1" width="5.3" height="60.4"/>
		</g>
		<g id="XMLID_73_">
			<rect id="XMLID_77_" x="181.2" y="333" class="st1" width="5.3" height="27.5"/>
		</g>
		<g id="XMLID_71_">
			<rect id="XMLID_72_" x="139.5" y="313.5" class="st1" width="5.3" height="14.9"/>
		</g>
		<g id="XMLID_69_">
			<rect id="XMLID_70_" x="139.5" y="336.2" class="st1" width="5.3" height="30.2"/>
		</g>
		<g id="XMLID_67_">
			<rect id="XMLID_68_" x="223" y="313.7" class="st1" width="5.3" height="11.1"/>
		</g>
		<g id="XMLID_65_">
			<rect id="XMLID_66_" x="223" y="333" class="st1" width="5.3" height="41.4"/>
		</g>
		<g id="XMLID_63_">
			<rect id="XMLID_64_" x="235.8" y="313.5" class="st1" width="5.3" height="50.9"/>
		</g>
		<g id="XMLID_61_">
			<rect id="XMLID_62_" x="235.8" y="368.7" class="st1" width="5.3" height="8.3"/>
		</g>
		<g id="XMLID_59_">
			<rect id="XMLID_60_" x="196.3" y="328.4" class="st1" width="5.3" height="17.4"/>
		</g>
		<g id="XMLID_57_">
			<rect id="XMLID_58_" x="196.3" y="357.8" class="st1" width="5.3" height="13.2"/>
		</g>
	</g>
</g>
</svg>
